<svg width="20" height="21" viewBox="0 0 20 21" fill="none" xmlns="http://www.w3.org/2000/svg">
    <path d="M6.459 4.4a.799.799 0 0 0-.149.222l-.004-.004L.075 18.885l.006.006c-.116.227.077.69.474 1.094.396.402.851.599 1.075.481l.006.006 14.036-6.334-.004-.005a.767.767 0 0 0 .22-.152c.867-.882-.54-3.742-3.143-6.388-2.604-2.646-5.418-4.076-6.286-3.194z" fill="#DD2E44"/>
    <path d="M7.222 6.95.232 18.527l-.157.359.006.006c-.116.228.077.69.474 1.094.128.13.262.23.393.314L9.445 9.773 7.222 6.949z" fill="#EA596E"/>
    <path d="M12.785 7.55C15.379 10.188 16.82 13 16 13.831c-.818.833-3.585-.63-6.181-3.268C7.225 7.925 5.785 5.112 6.603 4.28c.82-.832 3.586.632 6.182 3.27z" fill="#A0041E"/>
    <path d="M10.33 7.856a.544.544 0 0 1-.408.122c-.483-.053-.888-.224-1.172-.493a1.265 1.265 0 0 1-.408-1.052c.07-.673.735-1.29 1.868-1.166.44.048.637-.096.644-.165.008-.068-.154-.252-.595-.3-.482-.053-.887-.224-1.172-.493-.3-.285-.45-.668-.408-1.052.072-.673.736-1.29 1.867-1.166.322.035.491-.032.563-.075.057-.036.08-.07.082-.09.007-.068-.153-.251-.595-.3a.562.562 0 0 1-.492-.622.556.556 0 0 1 .612-.5c1.132.123 1.652.87 1.58 1.544-.072.674-.736 1.29-1.869 1.167-.321-.036-.489.032-.561.076-.057.035-.08.069-.083.088-.007.07.154.252.595.3 1.132.125 1.652.871 1.58 1.545-.072.673-.735 1.29-1.868 1.166-.32-.035-.49.033-.562.076-.058.036-.08.07-.082.089-.007.068.153.252.594.3a.562.562 0 0 1 .493.623.56.56 0 0 1-.204.378z" fill="#AA8DD8"/>
    <path d="M17.034 13.077c1.096-.314 1.852.183 2.032.835.18.651-.21 1.476-1.305 1.79-.428.122-.557.33-.54.396.02.066.237.176.663.053 1.096-.313 1.852.184 2.032.835.181.653-.21 1.477-1.306 1.79-.427.122-.556.33-.537.397.018.066.235.176.662.054a.555.555 0 0 1 .685.39c.082.3-.09.612-.385.697-1.095.313-1.852-.183-2.033-.836-.18-.651.21-1.475 1.307-1.789.428-.123.556-.33.538-.396-.018-.066-.235-.177-.662-.055-1.096.314-1.852-.181-2.032-.835-.18-.651.21-1.475 1.306-1.79.427-.121.555-.33.537-.396-.019-.066-.235-.176-.662-.054a.554.554 0 0 1-.685-.39.566.566 0 0 1 .385-.696z" fill="#77B255"/>
    <path d="M12.778 11.555a.553.553 0 0 1-.435-.211.572.572 0 0 1 .087-.794c.121-.1 3.01-2.405 7.093-1.812.304.044.515.33.471.639a.554.554 0 0 1-.628.479c-3.608-.521-6.215 1.555-6.241 1.576a.55.55 0 0 1-.347.123z" fill="#AA8DD8"/>
    <path d="M3.198 9.206a.566.566 0 0 1-.532-.727c.629-2.13 1.2-5.53.498-6.417-.078-.1-.196-.199-.467-.178-.522.04-.472 1.158-.472 1.17a.561.561 0 0 1-.512.605.559.559 0 0 1-.595-.521c-.058-.78.18-2.279 1.495-2.38.587-.045 1.074.162 1.418.597 1.317 1.666-.02 6.497-.301 7.449a.557.557 0 0 1-.532.402z" fill="#77B255"/>
    <path d="M14.168 6.383a.84.84 0 0 0 .834-.847.84.84 0 0 0-.834-.847.84.84 0 0 0-.833.847.84.84 0 0 0 .833.847z" fill="#5C913B"/>
    <path d="M1.112 11.464a1.12 1.12 0 0 0 1.11-1.13 1.12 1.12 0 0 0-1.11-1.129A1.12 1.12 0 0 0 0 10.335c0 .623.497 1.129 1.11 1.129z" fill="#9266CC"/>
    <path d="M18.055 12.03a.84.84 0 0 0 .834-.847.84.84 0 0 0-.834-.847.84.84 0 0 0-.833.847.84.84 0 0 0 .833.847zM13.055 18.805a.84.84 0 0 0 .834-.847.84.84 0 0 0-.834-.847.84.84 0 0 0-.833.847.84.84 0 0 0 .833.847z" fill="#5C913B"/>
    <path d="M15.556 3.56a1.12 1.12 0 0 0 1.11-1.13 1.12 1.12 0 0 0-1.11-1.13 1.12 1.12 0 0 0-1.111 1.13c0 .624.497 1.13 1.11 1.13zM18.055 5.819a.84.84 0 0 0 .834-.847.84.84 0 0 0-.834-.847.84.84 0 0 0-.833.847.84.84 0 0 0 .833.847zM16.39 8.077a.84.84 0 0 0 .832-.847.84.84 0 0 0-.833-.847.84.84 0 0 0-.833.847.84.84 0 0 0 .833.847zM4.168 14.288a.84.84 0 0 0 .833-.847.84.84 0 0 0-.833-.847.84.84 0 0 0-.833.847.84.84 0 0 0 .833.847z" fill="#FFCC4D"/>
</svg>
