<svg width="20" height="21" viewBox="0 0 20 21" fill="none" xmlns="http://www.w3.org/2000/svg">
<g clip-path="url(#clip0_179_797)">
<path d="M5.87875 11.8881C6.45351 11.8881 7.01426 11.6965 7.46753 11.346L3.82267 7.70117C2.94417 8.83669 3.15445 10.4722 4.28996 11.3507C4.74791 11.6965 5.30398 11.8881 5.87875 11.8881Z" fill="#00193C"/>
<path d="M16.7196 9.2841C16.7196 8.70933 16.528 8.14858 16.1776 7.69531L12.5327 11.3402C13.6682 12.2187 15.2991 12.0084 16.1776 10.8729C16.528 10.4196 16.7196 9.85886 16.7196 9.2841Z" fill="#00193C"/>
<path d="M18.5561 5.31836L16.9439 6.93051C18.243 8.48658 18.0374 10.8043 16.4813 12.1034C15.1168 13.2436 13.1355 13.2436 11.771 12.1034L10 13.8744L8.23365 12.1081C6.67757 13.4071 4.35981 13.2015 3.06075 11.6455C1.92056 10.281 1.92056 8.29967 3.06075 6.93518L2.23365 6.10808L1.4486 5.31836C0.5 6.87911 0 8.6735 0 10.5006C0 16.024 4.47664 20.5006 10 20.5006C15.5234 20.5006 20 16.024 20 10.5006C20.0047 8.6735 19.5 6.87911 18.5561 5.31836Z" fill="#00193C"/>
<path d="M17.2337 3.59746C13.4252 -0.397864 7.09814 -0.547397 3.10281 3.26101C2.98599 3.37316 2.87384 3.48531 2.76636 3.59746C2.5187 3.85915 2.28506 4.13017 2.06543 4.41522L10 12.3545L17.9346 4.41522C17.7196 4.13017 17.4813 3.85915 17.2337 3.59746ZM10 1.80774C12.3365 1.80774 14.514 2.70961 16.1495 4.35447L10 10.504L3.85048 4.35447C5.48599 2.70961 7.66356 1.80774 10 1.80774Z" fill="#00193C"/>
</g>
<defs>
<clipPath id="clip0_179_797">
<rect width="20" height="20" fill="white" transform="translate(0 0.5)"/>
</clipPath>
</defs>
</svg>
