<svg width="24" height="24" viewBox="0 0 24 24" fill="none" xmlns="http://www.w3.org/2000/svg">
    <path d="M18.636 7.213c.234-1.524 0-2.54-.818-3.478-.896-1.055-2.532-1.485-4.636-1.485H7.144c-.429 0-.78.313-.857.742L3.754 19.015a.514.514 0 0 0 .507.586H8l-.273 1.641c-.039.273.156.508.468.508h3.155c.39 0 .701-.273.74-.625l.663-4.142c.039-.352.39-.626.74-.626h.467c3.04 0 5.455-1.25 6.156-4.845.273-1.485.156-2.775-.624-3.635-.233-.273-.506-.469-.857-.664z" fill="#009CDE"/>
    <path d="M18.636 7.213c.234-1.524 0-2.54-.818-3.478-.896-1.055-2.532-1.485-4.636-1.485H7.144c-.429 0-.78.313-.857.742L3.754 19.015a.514.514 0 0 0 .507.586H8l.896-5.784c.078-.43.428-.742.857-.742h1.792c3.506 0 6.233-1.407 7.012-5.55.04-.078.04-.195.078-.312z" fill="#012169"/>
    <path d="M9.949 7.252c.039-.274.39-.625.74-.625h4.753c.545 0 1.09.039 1.558.117.429.078 1.208.274 1.597.508.234-1.524 0-2.54-.818-3.478-.857-1.094-2.493-1.524-4.597-1.524H7.144c-.429 0-.78.313-.857.742L3.754 19.015a.514.514 0 0 0 .507.586H8L9.949 7.252z" fill="#003087"/>
</svg>
