<svg width="24" height="24" viewBox="0 0 24 24" fill="none" xmlns="http://www.w3.org/2000/svg">
    <g clip-path="url(#7easlllywa)">
        <path d="M2.837 0h18.326A2.837 2.837 0 0 1 24 2.837v18.326A2.837 2.837 0 0 1 21.163 24H2.837A2.838 2.838 0 0 1 0 21.163V2.837A2.838 2.838 0 0 1 2.837 0z" fill="#3396CD"/>
        <path d="M17.914 4.883c.516.851.748 1.729.748 2.837 0 3.535-3.017 8.126-5.466 11.349H7.604L5.36 5.657l4.898-.465 1.192 9.543c1.107-1.806 2.476-4.643 2.476-6.576 0-1.06-.182-1.78-.466-2.372l4.453-.904z" fill="#fff"/>
    </g>
    <defs>
        <clipPath id="7easlllywa">
            <path fill="#fff" d="M0 0h24v24H0z"/>
        </clipPath>
    </defs>
</svg>
