<svg width="128" height="41" viewBox="0 0 128 41" fill="none" xmlns="http://www.w3.org/2000/svg">
    <path d="M37.584 14.054v9.25c0 .866.138 1.62.414 2.263a4.406 4.406 0 0 0 1.18 1.594 5.424 5.424 0 0 0 1.772.925c.669.21 1.39.315 2.165.315.774 0 1.495-.105 2.164-.315a5.175 5.175 0 0 0 1.772-.925c.511-.42.905-.951 1.18-1.594.289-.643.433-1.397.433-2.263v-9.25h-3.326v9.013c0 .696-.183 1.26-.55 1.693-.368.433-.926.65-1.673.65-.735 0-1.286-.217-1.654-.65-.367-.433-.55-.997-.55-1.693v-9.013h-3.327zm23.797 0v7.754l-9.505-8.443V27.83h3.188v-7.754l9.525 8.443V14.054H61.38zm6.513 0V27.83h3.385V14.054h-3.385zm6.697 0V27.83h3.326V14.054h-3.326zm2.086 2.736h2.697c.669 0 1.194.15 1.574.452.38.302.57.741.57 1.319 0 .564-.19.997-.57 1.299-.38.301-.905.452-1.574.452h-2.697v2.736h2.697c1.167 0 2.145-.177 2.932-.531.8-.368 1.404-.886 1.81-1.555.407-.683.61-1.483.61-2.401 0-.945-.203-1.752-.61-2.42-.406-.67-1.01-1.182-1.81-1.536-.787-.367-1.765-.55-2.932-.55h-2.697v2.735zm12.774 11.04h6.947v-2.735H89.45v2.735zm0-11.04h6.947v-2.736H89.45v2.736zm0 5.136h6.553V19.25h-6.553v2.676zm-2.204-7.872V27.83h3.188V14.054h-3.189zm14.455 13.776h6.947v-2.735h-6.947v2.735zm0-11.04h6.947v-2.736h-6.947v2.736zm0 5.136h6.554V19.25h-6.554v2.676zm-2.204-7.872V27.83h3.188V14.054h-3.188zm15.696 7.537 3.857 6.24h3.897l-4.31-6.24h-3.444zm-3.444-7.537V27.83h3.326V14.054h-3.326zm2.086 2.814h2.696c.446 0 .826.073 1.141.217.328.144.578.354.748.63.171.262.256.583.256.964 0 .38-.085.708-.256.984-.17.262-.42.466-.748.61-.315.131-.695.197-1.141.197h-2.696v2.578h2.932c1.181 0 2.165-.19 2.952-.57.787-.381 1.384-.906 1.791-1.575.407-.682.61-1.463.61-2.342 0-.892-.203-1.673-.61-2.342-.407-.682-1.004-1.214-1.791-1.594-.787-.38-1.771-.57-2.952-.57h-2.932v2.813z" fill="#070A35"/>
    <g clip-path="url(#c02dlxpjpa)" fill="#FE5E44">
        <path d="M9.578 18.464a2.772 2.772 0 0 1-2-.777 2.747 2.747 0 0 1-.618-3.04 2.763 2.763 0 0 1 2.618-1.677 2.721 2.721 0 0 1 2.341 1.391c-.074-.016.038.062 0 0l1.133 1.276a5.825 5.825 0 0 0 3.973 1.58c2.006 0 4.046-1.174 5.113-2.86.064-.025-.038.065 0 0a2.725 2.725 0 0 1 2.34-1.39 2.773 2.773 0 0 1 2.001.778 2.749 2.749 0 0 1 .835 1.968 2.737 2.737 0 0 1-.835 1.97 2.76 2.76 0 0 1-2 .777 5.843 5.843 0 0 0-4 1.61l-.548.56a7.947 7.947 0 0 0-.547.701 2.656 2.656 0 0 1-1.995 1.387 2.674 2.674 0 0 1-2.718-1.387c-.024-.043.046.023 0 0a6.15 6.15 0 0 0-2.182-2.073c-.89-.501-1.89-.774-2.91-.794zm14.91 3.074a2.768 2.768 0 0 0-2.55 1.696 2.735 2.735 0 0 0 .598 2.994 2.772 2.772 0 0 0 3.007.596 2.738 2.738 0 0 0 .895-4.48 2.769 2.769 0 0 0-1.95-.806zm-12.15 2.747a2.74 2.74 0 0 0-1.703-2.538 2.772 2.772 0 0 0-3.008.596 2.736 2.736 0 0 0 .419 4.227 2.77 2.77 0 0 0 4.083-1.233c.139-.333.21-.69.21-1.052zm4.695 7.03a2.77 2.77 0 0 0 1.533-.462 2.749 2.749 0 0 0 1.174-2.822 2.737 2.737 0 0 0-.756-1.406 2.772 2.772 0 0 0-3.008-.596c-.504.208-.935.56-1.238 1.012a2.737 2.737 0 0 0 .344 3.469 2.77 2.77 0 0 0 1.95.805z"/>
        <path d="M19.793 11.433c0-.544-.162-1.075-.465-1.527a2.758 2.758 0 0 0-2.833-1.168 2.744 2.744 0 0 0-2.013 3.745c.21.503.564.933 1.017 1.234a2.768 2.768 0 0 0 4.082-1.233c.139-.333.21-.69.212-1.051z"/>
    </g>
    <defs>
        <clipPath id="c02dlxpjpa">
            <path fill="#fff" transform="rotate(90 10 18)" d="M0 0h24v21.943H0z"/>
        </clipPath>
    </defs>
</svg>
