<svg width="25" height="24" viewBox="0 0 25 24" fill="none" xmlns="http://www.w3.org/2000/svg">
    <path opacity=".4" fill-rule="evenodd" clip-rule="evenodd" d="M12.5 19.7a7.7 7.7 0 1 0 0-15.4 7.7 7.7 0 0 0 0 15.4zm0 3.3c6.075 0 11-4.925 11-11s-4.925-11-11-11-11 4.925-11 11 4.925 11 11 11z" fill="#FEEAD9"/>
    <path d="M3.15 12c-.911 0-1.663-.743-1.528-1.644a11.008 11.008 0 0 1 9.234-9.234c.9-.135 1.644.617 1.644 1.528s-.747 1.632-1.638 1.825a7.71 7.71 0 0 0-5.887 5.887C4.782 11.252 4.06 12 3.15 12z" fill="#fff"/>
</svg>
