<svg width="28" height="24" viewBox="0 0 28 24" fill="none" xmlns="http://www.w3.org/2000/svg">
    <g clip-path="url(#n1vgl5xwia)" fill-rule="evenodd" clip-rule="evenodd">
        <path d="M5.127.118.02 10.684a.202.202 0 0 0 .045.24l13.788 13.018a.212.212 0 0 0 .292 0l13.788-13.018a.205.205 0 0 0 .045-.239L22.873.12A.205.205 0 0 0 22.685 0H5.317a.209.209 0 0 0-.19.118z" fill="#50AF95"/>
        <path d="M15.772 11.77c-.1.007-.61.037-1.752.037a38.79 38.79 0 0 1-1.777-.038c-3.507-.152-6.125-.753-6.125-1.473 0-.72 2.618-1.321 6.125-1.476v2.35c.229.016.886.055 1.793.055 1.089 0 1.634-.045 1.732-.054V8.82c3.5.155 6.111.756 6.111 1.475 0 .718-2.61 1.32-6.11 1.472l.003.001zm0-3.191V6.476h4.883V3.27H7.359v3.206h4.883v2.102c-3.969.18-6.953.954-6.953 1.883 0 .928 2.984 1.701 6.953 1.882v6.738h3.529v-6.74c3.96-.18 6.939-.954 6.939-1.881 0-.928-2.977-1.702-6.94-1.882h.002z" fill="#fff"/>
    </g>
    <defs>
        <clipPath id="n1vgl5xwia">
            <path fill="#fff" d="M0 0h28v24H0z"/>
        </clipPath>
    </defs>
</svg>
