<svg width="64" height="64" viewBox="0 0 64 64" fill="none" xmlns="http://www.w3.org/2000/svg">
    <path d="M45.333 37.333v16m-8-8h16M16 26.666h5.333a5.333 5.333 0 0 0 5.334-5.333v-5.334a5.333 5.333 0 0 0-5.334-5.333H16a5.333 5.333 0 0 0-5.334 5.333v5.334A5.333 5.333 0 0 0 16 26.666zm26.666 0H48a5.333 5.333 0 0 0 5.333-5.333v-5.334A5.333 5.333 0 0 0 48 10.666h-5.334a5.333 5.333 0 0 0-5.333 5.333v5.334a5.333 5.333 0 0 0 5.334 5.333zM16 53.333h5.333a5.333 5.333 0 0 0 5.334-5.334v-5.333a5.333 5.333 0 0 0-5.334-5.333H16a5.333 5.333 0 0 0-5.334 5.333v5.333A5.333 5.333 0 0 0 16 53.333z" stroke="#0E144A" stroke-width="5.333" stroke-linecap="round" stroke-linejoin="round"/>
</svg>
